<svg width="409" height="10" viewBox="0 0 409 10" fill="none" xmlns="http://www.w3.org/2000/svg">
<path d="M408.856 9.99996C409.144 9.89995 409 9.69995 408.424 9.69995L407.992 9.99996H408.856Z" fill="#DA6C37"/>
<path d="M404.968 9.19995C404.248 9.29995 403.384 9.49996 403.816 9.89996C404.536 9.59996 404.68 9.79996 405.544 9.39995C406.12 9.39995 406.552 9.59996 406.408 9.69996C406.696 9.59996 407.272 9.79996 407.704 9.59996C406.984 9.29995 405.976 9.19995 404.968 9.39995C404.68 9.29995 404.968 9.19995 404.968 9.19995Z" fill="#DA6C37"/>
<path d="M347.223 5.3999L347.655 5.4999C347.367 5.3999 347.367 5.3999 347.223 5.3999Z" fill="#DA6C37"/>
<path d="M311.222 3.6C311.51 3.6 311.654 3.6 311.654 3.5C311.366 3.5 311.222 3.6 311.222 3.6Z" fill="#DA6C37"/>
<path d="M347.223 5.39971L346.215 5.19971C346.071 5.29971 346.647 5.29971 347.223 5.39971Z" fill="#DA6C37"/>
<path d="M396.904 9.50015C397.048 9.50015 397.336 9.50015 397.48 9.40015L396.904 9.50015C396.904 9.50015 396.904 9.40015 396.904 9.50015Z" fill="#DA6C37"/>
<path d="M363.063 5.90005H363.351C363.495 5.90005 363.495 5.80005 363.639 5.80005L363.063 5.90005Z" fill="#DA6C37"/>
<path d="M375.159 6.50024C374.871 6.50024 374.727 6.70025 374.583 6.90025C374.727 6.80025 375.015 6.70025 375.159 6.70025C375.303 6.70025 375.303 6.60025 375.159 6.50024Z" fill="#DA6C37"/>
<path d="M394.312 8.20008H394.598C394.598 8.10008 394.455 8.20008 394.312 8.20008Z" fill="#DA6C37"/>
<path d="M354.277 5.39971C354.277 5.39971 354.277 5.30005 354.134 5.30005C354.277 5.30005 354.277 5.30005 354.277 5.39971Z" fill="#DA6C37"/>
<path d="M14.282 7.09965C14.282 6.99999 14.282 6.99999 14.282 7.09965C14.1461 7.09965 14.282 6.99999 14.282 7.09965Z" fill="#DA6C37"/>
<path d="M0.0292358 6.39996H0.172452C0.172452 6.29995 0.172452 6.29995 0.172452 6.19995L0.0292358 6.39996Z" fill="#DA6C37"/>
<path d="M293.941 2.29984C294.084 2.20018 294.227 2.20018 293.941 2.29984V2.29984Z" fill="#DA6C37"/>
<path d="M190.691 0.600098C191.843 0.900103 188.819 0.900103 190.547 1.20011C190.403 1.10011 192.131 0.7001 190.691 0.600098Z" fill="#DA6C37"/>
<path d="M268.02 1.69995C268.02 1.79995 268.164 1.79995 268.307 1.79995C268.307 1.79995 268.307 1.69995 268.02 1.69995Z" fill="#DA6C37"/>
<path d="M287.317 2.6L286.885 2.5C287.029 2.6 287.173 2.6 287.317 2.6Z" fill="#DA6C37"/>
<path d="M258.084 1.80018C257.796 1.80018 257.796 1.70018 257.364 1.80018C257.364 1.80018 257.364 1.80018 257.508 1.80018C257.508 1.80018 257.652 1.70018 258.084 1.80018Z" fill="#DA6C37"/>
<path d="M247.571 1.6001C247.571 1.6001 247.715 1.6001 247.715 1.7001C247.859 1.7001 248.003 1.7001 248.003 1.7001L247.571 1.6001Z" fill="#DA6C37"/>
<path d="M45.8231 5.50005C45.5351 5.40005 45.3911 5.30005 45.3911 5.30005C45.5351 5.50005 44.095 5.60005 45.8231 5.50005Z" fill="#DA6C37"/>
<path d="M396.902 9.30029C396.902 9.40029 396.758 9.4003 396.615 9.4003C396.758 9.4003 396.902 9.4003 396.902 9.4003V9.30029Z" fill="#DA6C37"/>
<path d="M257.508 3.9999L255.924 3.8999C256.356 3.9999 256.932 3.9999 257.508 3.9999Z" fill="#DA6C37"/>
<path d="M250.884 3.9002C250.596 3.8002 250.308 3.7002 250.02 3.7002C250.02 3.7002 249.876 3.7002 249.876 3.8002L250.884 3.9002Z" fill="#DA6C37"/>
<path d="M34.5906 6.40012C36.1746 6.30012 35.3106 6.00011 35.5986 5.80011C37.4706 5.6001 36.4626 6.00011 37.1826 6.20012C38.3347 6.10011 39.1987 5.70011 40.0627 5.70011C40.0627 5.80011 40.3507 5.80011 40.0627 5.90011C41.2147 5.6001 43.8068 5.70011 45.1028 5.3001C45.2468 5.3001 45.2468 5.4001 45.2468 5.4001C44.9588 5.2001 44.9588 5.00009 44.9588 4.90009C45.6788 4.90009 46.2549 4.60009 46.5429 4.80009C46.1109 4.80009 46.1109 4.90009 45.8228 5.00009L46.5429 4.90009C47.2629 5.2001 45.5348 5.10009 45.5348 5.3001C46.9749 5.10009 48.5589 4.80009 49.7109 4.80009C49.999 5.10009 47.1189 5.00009 48.7029 5.3001L47.2629 5.10009C48.5589 5.6001 46.2549 5.10009 47.4069 5.6001C49.7109 5.6001 49.8549 5.3001 52.159 5.3001C52.591 5.10009 52.015 5.00009 52.447 4.80009C55.6151 4.40008 55.0391 5.6001 57.3431 5.00009C57.9191 4.80009 58.2071 4.30008 59.7912 4.50008L59.2152 4.90009C61.3752 4.90009 60.3672 4.30008 62.6713 4.50008C62.2393 4.70009 60.9432 4.70009 61.2312 4.70009C62.6713 5.00009 62.2393 4.40008 63.3913 4.40008L63.6793 4.70009C65.9833 4.60009 68.5754 4.20008 71.1675 4.10008C71.0235 4.20008 70.5915 4.30008 71.1675 4.40008C74.3355 4.10008 78.0796 4.20008 81.2477 4.30008L82.3997 4.00007C82.6878 4.00007 82.9758 4.10008 82.6878 4.20008C83.9838 4.30008 82.6878 4.00007 83.2638 3.90007C83.9838 3.90007 84.1278 4.00007 83.6958 4.10008C85.8558 3.80007 89.7439 3.40006 92.048 3.70007L91.616 3.80007C93.344 3.90007 93.632 3.10006 95.2161 3.40006L94.9281 3.50007C98.8162 3.50007 102.992 3.10006 105.872 3.50007C106.448 3.10006 109.616 3.60007 109.904 3.00006C112.064 3.30006 111.488 3.40006 114.513 3.50007C115.377 3.50007 115.665 3.10006 116.673 3.00006V3.30006L118.113 3.00006L118.833 3.40006L119.841 3.30006C119.409 3.30006 118.977 3.20006 119.121 3.10006C120.561 2.90005 122.721 3.20006 122.865 3.40006L126.321 3.10006C126.177 3.20006 125.601 3.30006 125.169 3.40006C127.041 3.00006 125.457 3.70007 127.185 3.40006C126.897 3.30006 127.329 3.20006 127.329 3.20006C128.193 3.40006 130.209 3.40006 131.649 3.30006L131.361 3.50007C133.953 3.50007 136.833 3.30006 139.857 3.30006C138.849 3.20006 138.993 2.80005 139.857 2.80005L140.577 3.10006C141.153 2.90005 139.713 3.00006 140.865 2.70005C142.017 2.70005 141.585 3.10006 141.009 3.20006L142.305 3.10006C142.449 3.20006 142.017 3.30006 142.017 3.40006C142.593 3.20006 144.321 3.70007 145.041 3.30006L145.185 3.40006C148.065 3.40006 149.505 3.20006 151.809 3.20006C151.809 2.90005 152.817 3.00006 153.537 2.70005C155.266 2.80005 157.282 3.00006 159.298 3.00006C160.738 2.90005 159.73 2.80005 160.45 2.60005C160.594 2.90005 162.61 2.80005 161.602 3.00006C164.194 2.90005 164.914 2.90005 168.082 2.70005C167.794 2.60005 167.362 2.60005 167.506 2.50005C168.082 2.50005 168.802 2.60005 168.802 2.70005H168.658C172.258 2.30004 177.01 3.40006 179.89 2.90005H179.746L182.77 2.60005C184.21 2.60005 181.906 2.80005 182.914 3.00006C186.082 2.60005 187.954 3.10006 190.69 2.80005C192.706 3.60007 197.891 2.80005 200.771 3.30006L200.339 3.10006C201.059 2.90005 201.203 3.20006 201.779 3.20006C201.635 3.10006 200.915 3.10006 201.347 3.00006C207.395 2.80005 213.875 3.40006 220.067 3.60007C222.371 3.70007 221.363 2.70005 224.243 3.10006L223.379 3.40006C227.987 3.00006 232.739 3.50007 237.204 3.30006C236.916 3.40006 236.916 3.50007 236.484 3.50007C237.492 3.80007 239.94 3.60007 239.94 3.40006C240.66 3.40006 240.084 3.60007 240.516 3.70007C241.524 3.90007 242.964 3.40006 243.396 3.70007C243.54 3.70007 243.108 3.80007 242.964 3.80007C243.54 3.70007 245.844 3.90007 245.268 3.60007C246.996 3.80007 248.436 3.50006 249.876 3.70007C250.74 3.40006 252.756 3.90007 253.044 3.50007C252.9 3.90007 255.924 3.90007 257.076 3.70007C256.644 3.80007 257.94 3.90007 257.508 4.00007C258.66 4.00007 259.812 4.00007 259.668 3.70007C261.828 4.30008 264.132 3.40006 265.428 4.10008C269.028 4.00007 272.34 3.90007 275.652 3.90007C275.508 4.30008 272.052 3.90007 272.196 4.30008C275.22 4.20008 277.093 3.90007 280.117 4.00007C280.837 4.10008 279.685 4.20008 279.397 4.30008C282.421 4.20008 285.301 4.50008 288.037 4.40008C288.037 4.40008 287.749 4.50008 287.461 4.50008C288.037 4.50008 288.757 4.60009 288.613 4.40008H288.037C287.173 4.10008 290.197 3.90007 290.341 3.70007C289.333 4.30008 293.077 3.90007 291.493 4.60009C291.781 4.60009 292.357 4.50008 292.213 4.40008C292.789 4.50008 292.933 4.50008 292.357 4.70009C294.229 4.70009 293.653 4.40008 295.381 4.50008C295.381 4.60009 294.949 4.60009 294.805 4.70009C295.669 4.50008 296.677 4.40008 298.117 4.50008C297.973 4.60009 298.261 4.60009 297.685 4.60009C300.277 4.70009 302.005 4.20008 304.885 4.50008C304.021 4.90009 305.893 4.70009 305.893 5.10009L307.333 5.00009L306.757 4.80009C308.053 4.90009 309.205 4.60009 310.357 4.80009L309.637 5.00009H312.085L310.645 4.80009C311.941 4.70009 310.501 4.30008 312.229 4.50008C311.941 4.50008 313.525 4.60009 314.245 4.80009C314.965 4.70009 315.541 4.60009 316.549 4.70009C316.838 4.80009 316.262 5.10009 316.405 5.2001C317.126 4.90009 319.43 5.2001 320.294 4.90009C320.006 5.00009 320.006 5.2001 320.006 5.2001L320.582 5.00009C321.158 5.10009 321.302 5.10009 321.158 5.3001C323.03 5.4001 320.582 4.80009 322.742 5.10009C322.598 5.10009 322.598 5.2001 322.31 5.2001C324.47 5.4001 326.486 5.2001 328.502 5.4001C329.078 5.80011 326.774 5.4001 327.35 5.80011C330.23 5.80011 333.398 5.6001 336.134 5.80011L335.558 5.70011C335.99 5.2001 337.574 6.10011 339.014 5.90011C338.726 5.90011 338.582 6.20012 338.582 6.10011C340.454 6.30012 342.47 6.20012 345.35 6.10011L344.918 6.20012C346.07 6.40012 347.942 6.40012 349.094 6.50012C349.526 6.40012 350.102 6.40012 349.814 6.20012C353.414 7.20013 357.014 6.10011 360.327 7.00013C359.895 7.00013 359.319 7.10013 359.751 7.10013H362.631C362.487 6.90013 362.343 6.90013 361.767 6.70012C362.199 6.60012 362.919 6.50012 363.639 6.60012C362.343 6.70012 363.639 7.00013 364.215 7.10013C364.071 7.00013 364.359 7.00013 364.359 6.90013C365.799 7.40014 364.647 6.50012 366.663 6.80013L366.807 7.10013C367.527 7.10013 368.247 7.00013 369.111 7.00013C369.399 7.30014 368.247 7.10013 368.247 7.30014C369.399 7.30014 370.551 6.90013 371.559 7.20013C371.127 7.20013 370.407 7.20013 369.831 7.30014C370.983 7.70014 371.127 7.60014 371.847 7.70014H371.703L373.575 7.90015L373.143 7.80014C374.727 7.20013 376.023 7.80015 378.039 7.50014C376.167 7.80015 377.751 7.70014 377.463 8.00015C377.895 8.10015 378.615 8.20015 378.471 8.30015C379.479 8.10015 379.911 8.60016 381.351 8.30015C381.351 8.40016 382.359 8.40016 382.071 8.60016C383.223 8.60016 381.783 8.40016 381.927 8.30015C383.799 8.10015 386.103 9.00017 388.839 8.70016C391.143 8.70016 391.575 8.40016 393.735 8.30015C394.455 8.50016 393.159 8.60016 393.159 8.60016C394.311 8.80016 395.175 8.80016 396.183 8.80016C395.895 8.90017 396.183 9.00017 396.471 9.10017C397.335 9.10017 397.047 8.80016 398.2 9.00017C398.056 9.10017 397.767 9.30017 397.335 9.30017C398.344 9.30017 399.352 9.20017 400.504 9.10017C400.792 9.30017 399.784 9.30017 399.496 9.40018C400.648 9.40018 402.664 9.40018 402.952 9.20017L402.232 9.10017C402.664 9.10017 402.376 9.30017 402.088 9.40018C401.08 9.50018 400.648 9.20017 400.648 9.10017H401.368C400.648 8.50016 398.344 9.00017 396.759 8.90017L397.479 8.50016L395.895 8.70016C395.607 8.60016 395.319 8.30015 396.183 8.30015C395.175 8.00015 395.175 8.40016 394.311 8.10015C394.167 8.10015 394.311 8.00015 394.311 8.00015L393.303 8.10015C393.591 8.00015 393.159 7.80015 393.879 7.90015C392.007 7.50014 390.711 8.00015 390.135 7.70014H390.279C387.687 7.70014 389.991 8.00015 387.975 8.20015L386.679 7.40014L386.391 7.70014C386.103 7.70014 385.527 7.60014 385.671 7.50014C384.663 7.60014 385.815 7.60014 385.239 7.80014C383.943 7.40014 381.639 7.70014 381.351 7.20013C380.919 7.40014 382.647 7.40014 381.207 7.50014C380.919 7.00013 379.623 7.50014 378.471 7.20013C378.903 7.00013 380.055 7.20013 378.759 6.90013C378.039 7.30014 376.455 6.70012 375.447 6.70012C375.303 7.10013 373.287 6.70012 371.559 6.80013C371.703 6.70012 368.391 6.40012 366.807 6.20012V6.10011C366.519 6.40012 364.791 6.30012 363.639 6.30012C363.639 6.10011 363.927 6.00011 364.647 5.90011L363.495 5.80011C363.207 5.90011 362.919 5.90011 362.199 5.90011L362.487 5.6001C361.047 5.5001 359.463 5.80011 357.591 5.5001C357.447 5.80011 359.031 6.30012 357.014 6.40012C357.014 6.30012 356.87 6.00011 357.447 6.00011C357.302 6.00011 356.87 6.10011 356.438 6.00011L357.303 5.80011C356.439 5.70011 356.871 6.00011 356.15 5.90011C356.15 5.70011 355.718 5.70011 355.718 5.6001C355.862 5.6001 356.294 5.70011 356.582 5.6001C355.862 5.5001 354.854 5.4001 354.566 5.2001C354.566 5.3001 354.566 5.5001 353.99 5.5001C352.55 5.4001 353.558 5.2001 352.694 5.10009C352.262 5.2001 351.398 5.00009 351.398 5.3001C350.966 5.3001 350.966 5.10009 350.678 5.00009C349.958 5.10009 347.078 4.90009 347.942 5.2001H348.086H347.942C345.35 5.4001 342.758 4.80009 340.166 4.80009V4.70009C338.726 4.70009 336.854 4.60009 335.702 4.80009C335.27 4.80009 334.694 4.60009 334.838 4.50008C333.686 4.50008 333.542 4.60009 331.958 4.40008C333.11 4.30008 331.526 4.20008 333.11 4.30008C331.67 4.10008 331.382 4.00007 329.654 4.20008C330.23 4.00007 328.502 3.80007 327.782 3.90007L328.79 4.10008C327.926 4.10008 327.35 4.10008 326.63 4.00007L327.062 3.70007C324.038 3.20006 321.59 4.20008 319.286 3.40006C318.422 3.60007 320.87 3.60007 320.15 3.90007C318.71 3.80007 317.27 3.30006 316.838 3.20006C314.965 2.90005 314.965 3.60007 312.949 3.40006C313.237 3.50006 313.381 3.90007 311.941 3.90007C310.501 3.80007 310.213 3.30006 311.221 3.30006C311.509 3.30006 311.653 3.30006 311.653 3.40006C312.085 3.40006 312.661 3.30006 312.229 3.20006L312.085 3.30006C311.365 3.20006 309.493 3.10006 309.925 2.90005C308.917 3.00006 309.493 3.10006 310.213 3.20006C308.485 3.00006 307.477 3.10006 305.605 2.90005C305.893 3.00006 306.181 3.10006 305.893 3.10006C303.157 2.90005 304.741 3.30006 302.869 3.30006C301.861 3.10006 303.301 2.90005 301.429 3.00006C300.277 2.80005 301.285 2.70005 301.717 2.60005C299.989 2.80005 298.549 2.30004 297.685 2.30004L298.549 2.20004C297.973 2.20004 297.541 2.20004 297.109 2.20004L297.541 2.50005C296.965 2.40004 296.533 2.40004 296.533 2.30004C295.957 2.40004 296.965 2.70005 295.813 2.90005C295.093 2.80005 293.653 3.00006 293.509 2.60005C295.669 2.80005 293.221 2.30004 295.093 2.30004C294.805 2.30004 294.229 2.30004 293.797 2.30004C293.653 2.30004 293.941 2.20004 294.085 2.20004C292.069 1.80003 293.077 2.50005 290.917 2.40004C291.205 2.20004 290.485 2.00004 290.053 2.10004C290.917 2.10004 290.485 2.40004 289.621 2.50005C288.181 2.30004 288.037 2.60005 287.317 2.50005L288.181 2.60005C287.893 2.80005 287.173 2.70005 286.165 2.70005C286.021 2.60005 287.029 2.60005 286.741 2.60005C285.589 2.90005 284.293 2.20004 282.853 2.40004C282.133 2.30004 282.853 2.10004 282.133 2.00004C280.405 2.20004 280.261 1.70003 278.533 1.80003C278.965 2.10004 279.109 2.00004 277.813 2.20004L280.693 2.10004L278.821 2.40004C279.685 2.40004 280.693 2.30004 281.269 2.40004C280.405 2.60005 280.405 2.50005 280.837 2.70005C279.685 2.30004 278.389 2.80005 277.093 2.60005L277.237 2.00004C275.22 1.70003 273.492 2.20004 270.756 2.00004L271.62 2.10004C271.188 2.30004 269.892 2.10004 269.028 2.20004C269.172 2.00004 268.596 1.90004 268.164 1.80003C268.164 1.90004 266.148 1.70003 265.86 2.10004L264.708 1.80003C262.548 1.60003 262.116 2.30004 260.1 2.20004C260.676 2.00004 259.812 1.80003 261.252 1.70003C260.532 1.70003 259.956 1.60003 259.956 1.80003C259.524 1.70003 257.94 2.00004 257.364 1.80003C257.076 1.90004 256.932 2.10004 256.212 2.00004C256.068 2.00004 256.212 1.90004 256.212 1.90004C256.212 2.00004 254.916 2.00004 255.636 2.20004C253.476 1.50003 249.588 2.10004 247.716 1.60003C246.132 1.60003 244.404 1.70003 242.964 1.70003C243.108 1.60003 242.964 1.60003 243.252 1.60003C241.38 1.40003 242.1 2.10004 239.94 1.90004C238.788 1.60003 241.092 1.70003 240.372 1.60003C240.084 0.900017 237.78 1.60003 236.34 1.20002H236.628C235.476 1.00002 233.891 1.40003 232.019 1.30002C232.019 1.30002 232.163 1.20002 232.019 1.20002C230.723 1.50003 228.419 1.60003 226.547 1.70003C227.123 1.50003 227.411 1.60003 226.979 1.30002C226.259 1.30002 227.267 1.70003 225.683 1.80003C225.107 1.70003 224.099 1.50003 223.955 1.20002H225.395C224.675 0.800015 223.523 1.20002 222.659 1.10002L222.803 0.900017C220.499 0.900017 220.499 1.30002 218.051 1.30002L218.339 1.40003C217.043 1.80003 217.187 1.20002 215.891 1.40003L215.459 1.10002C214.595 1.20002 212.291 1.40003 210.707 1.50003C211.571 1.20002 213.443 1.10002 214.595 0.900017C213.731 0.900017 211.571 0.900017 211.139 1.10002C211.427 1.10002 212.003 1.00002 212.291 1.00002C211.139 1.30002 209.843 1.40003 208.115 1.40003C208.403 0.600011 203.507 1.10002 202.355 0.600011C199.331 0.900017 196.163 0.500009 192.562 0.500009C193.858 1.10002 191.554 0.500009 191.698 1.10002C190.834 1.10002 190.546 1.10002 190.402 1.10002L187.81 0.700013C187.234 0.500009 188.674 0.600011 188.53 0.400007C186.658 0.300006 187.81 0.100002 186.514 0C186.802 0.200004 185.938 0.300006 184.786 0.200004L186.226 0.500009C183.634 0.800015 184.066 0 181.474 0.300006L182.338 0.100002C181.042 0.200004 177.442 0.100002 176.146 0.600011C175.858 0.500009 175.57 0.400007 176.146 0.300006C172.978 0.200004 169.09 0.900017 166.642 0.600011L166.93 0.400007C166.354 0.400007 165.922 0.700013 165.202 0.500009C165.202 0.400007 165.49 0.300006 165.202 0.300006C164.914 0.400007 163.618 0.600011 162.898 0.500009L163.618 0.300006C160.45 0.100002 158.866 0.700013 156.274 0.800015C156.274 0.400007 153.826 0.200004 152.673 0.200004V0.100002C149.073 0.100002 146.625 0.500009 143.169 0.700013C141.153 0.200004 136.113 0.600011 132.801 0.400007C133.377 0.500009 132.657 0.700013 132.081 0.800015C131.361 0.700013 129.921 1.10002 130.065 0.700013H130.353C129.777 0.300006 128.193 0.400007 126.897 0.400007L126.753 0.900017C123.441 0.200004 118.113 1.30002 116.385 0.700013C115.665 0.800015 114.657 0.900017 113.793 1.00002V0.700013C111.632 0.700013 110.48 0.700013 107.744 0.800015L108.32 0.600011C106.736 0.600011 106.448 1.50003 105.008 1.50003L104.576 1.10002C101.84 1.10002 99.2482 0.900017 96.5121 1.30002C96.5121 1.20002 96.6561 1.10002 97.0881 1.10002C95.7921 1.10002 92.192 0.900017 92.768 1.50003C92.768 1.10002 90.0319 1.50003 88.5919 1.70003L88.7359 1.40003C87.5839 1.80003 87.4399 1.90004 85.8558 2.00004C85.4238 2.00004 85.4238 1.80003 85.9998 1.80003C84.8478 2.10004 85.1358 2.50005 83.5518 2.40004L84.1278 2.20004C82.6878 2.20004 82.8318 2.30004 82.1117 2.50005C81.2477 2.60005 79.5197 2.50005 79.2317 2.30004C79.0877 2.50005 78.3676 2.70005 77.5036 2.60005C77.3596 2.50005 77.6476 2.40004 77.7916 2.40004C75.4876 2.30004 74.3355 2.80005 72.7515 2.60005C72.7515 2.50005 72.6075 2.50005 72.4635 2.40004C74.3355 2.30004 75.7756 2.30004 75.6316 2.30004C75.6316 2.00004 74.1915 2.00004 75.3436 1.70003C74.1915 1.90004 72.1755 2.40004 70.7355 2.40004C70.7355 2.40004 70.5915 2.40004 70.5915 2.30004H70.7355C70.4474 2.30004 70.1594 2.30004 69.8714 2.40004C69.4394 2.40004 69.1514 2.40004 68.7194 2.40004C68.5754 2.20004 66.9914 2.30004 66.2713 2.40004C66.4154 2.70005 65.4073 2.70005 66.2713 2.90005C66.1273 2.90005 66.4154 2.90005 66.8474 2.80005C66.9914 2.80005 67.1354 2.80005 67.1354 2.80005C67.5674 2.80005 68.2874 2.80005 69.0074 2.70005C68.4314 2.90005 67.8554 3.00006 66.9914 2.90005C66.5594 3.10006 66.2713 3.30006 65.9833 3.40006C64.9753 3.00006 62.9593 2.90005 62.6713 2.70005C60.3672 2.90005 57.3431 3.00006 56.0471 3.60007C55.4711 3.70007 55.3271 3.50006 55.0391 3.40006C55.4711 3.30006 55.9031 3.30006 56.0471 3.20006C54.7511 3.30006 52.159 3.30006 51.871 3.60007C50.287 3.50007 52.735 3.20006 50.575 3.40006L50.863 3.30006C46.3989 2.90005 43.8068 4.50008 38.9107 4.00007C39.1987 4.00007 39.4867 4.00007 39.4867 4.10008C34.0146 4.00007 28.1104 4.90009 22.6383 4.60009C21.0542 4.60009 20.9102 4.80009 20.0462 5.00009L19.6142 4.70009L18.0302 5.10009C15.7261 5.5001 13.9981 4.60009 11.118 5.2001L11.55 5.4001C10.542 5.4001 8.23792 5.70011 8.38192 5.4001C8.23792 5.4001 8.09392 5.6001 7.6619 5.5001V5.3001L5.35785 5.90011C3.3418 5.90011 5.64585 5.3001 2.76578 5.4001C1.61376 5.4001 -0.25829 5.90011 0.0297166 6.00011C0.461727 6.00011 1.18174 6.00011 1.18174 6.20012L0.317724 6.30012C0.17372 6.80013 -0.546298 7.30014 1.90176 7.50014L3.4858 7.10013L4.06182 7.30014L2.62178 7.40014C3.4858 7.60014 3.91781 7.40014 4.49383 7.20013C4.63783 7.30014 4.92584 7.40014 5.21384 7.40014L6.79788 6.90013C7.08589 7.10013 6.22187 7.30014 7.22989 7.40014C8.09391 7.10013 6.50988 7.00013 7.80591 6.80013C8.66993 7.00013 8.38192 7.20013 9.24594 6.90013C9.38995 7.10013 9.24594 7.10013 8.95794 7.20013C9.67795 7.00013 11.118 7.00013 11.55 6.80013C12.414 7.00013 14.4301 6.60012 14.2861 7.00013C14.5741 6.90013 15.7261 6.60012 16.4461 6.50012C15.1501 7.10013 19.3262 6.40012 19.0382 7.00013C20.0462 6.50012 22.7823 6.60012 24.6543 6.30012C24.5103 6.30012 24.3663 6.40012 24.2223 6.40012C25.2303 6.40012 25.5183 6.50012 26.2384 6.60012C26.3824 6.20012 27.9664 6.00011 28.8304 5.80011C30.1265 6.10011 28.1104 6.30012 28.5424 6.60012C28.3984 6.30012 30.7025 6.20012 30.2705 5.90011C31.2785 6.10011 31.1345 6.00011 31.7105 6.30012C31.8545 5.80011 32.5745 6.20012 33.4385 5.80011C34.8786 6.00011 33.8705 6.20012 35.3106 6.00011C35.8866 6.20012 34.5906 6.40012 34.5906 6.40012ZM71.3115 4.20008C71.0235 4.20008 70.7355 4.20008 70.5915 4.20008C70.7355 4.20008 70.8795 4.20008 71.3115 4.20008ZM74.3355 4.10008C73.9035 4.10008 73.4715 4.10008 73.0395 4.10008C72.8955 4.00007 73.0395 3.90007 73.3275 3.90007C73.1835 4.00007 73.9035 4.00007 74.3355 4.10008ZM67.7114 2.40004C68.1434 2.30004 68.4314 2.40004 68.4314 2.40004C68.1434 2.40004 67.9994 2.40004 67.5674 2.50005C67.5674 2.40004 67.5674 2.40004 67.7114 2.40004Z" fill="#DA6C37"/>
<path d="M66.8471 2.69971H66.7031C66.7031 2.79971 66.8471 2.79971 66.8471 2.69971C66.9911 2.69971 66.9911 2.69971 67.1351 2.69971C66.9911 2.69971 66.8471 2.69971 66.8471 2.69971Z" fill="#DA6C37"/>
<path d="M117.103 3.6V3.5L116.816 3.6H117.103Z" fill="#DA6C37"/>
<path d="M364.503 7.30029L364.646 7.39995C364.646 7.30029 364.646 7.30029 364.503 7.30029Z" fill="#DA6C37"/>
<path d="M371.847 7.7002L372.855 7.9002C372.423 7.8002 372.135 7.8002 371.847 7.7002Z" fill="#DA6C37"/>
<path d="M377.463 8.2C377.606 8.2 377.606 8.10034 377.606 8.10034L377.463 8.2Z" fill="#DA6C37"/>
<path d="M314.389 4.80029C314.101 4.80029 313.813 4.9003 313.525 4.9003C313.957 4.9003 314.389 4.90029 314.389 4.80029Z" fill="#DA6C37"/>
<path d="M312.23 4.80029C312.662 4.90029 313.094 4.9003 313.526 4.9003C313.094 4.9003 312.662 4.80029 312.23 4.80029Z" fill="#DA6C37"/>
<path d="M392.151 9.10017C392.727 9.20018 393.447 9.40018 394.311 9.40018L394.455 9.30018C394.023 9.40018 392.727 9.00017 392.151 9.10017Z" fill="#DA6C37"/>
<path d="M382.935 7.19989L384.807 7.39989C384.519 7.29989 384.087 7.09989 384.951 7.09989C382.503 6.69988 385.383 7.39989 382.935 7.19989Z" fill="#DA6C37"/>
<path d="M377.031 6.8001C378.039 6.8001 377.031 6.6001 377.031 6.6001C376.455 6.6001 376.167 6.6001 377.031 6.8001Z" fill="#DA6C37"/>
<path d="M334.261 4.49996L334.404 4.19995C333.688 4.29995 334.404 4.39996 334.261 4.49996Z" fill="#DA6C37"/>
<path d="M326.054 5.5L326.774 5.7L327.062 5.5H326.054Z" fill="#DA6C37"/>
<path d="M249.444 1.40001L249.732 1.70002C250.164 1.60001 250.308 1.30001 249.444 1.40001Z" fill="#DA6C37"/>
<path d="M218.338 1.19974C218.05 0.99974 217.186 0.899738 216.61 1.09974C217.33 1.09974 218.05 1.19974 218.338 1.19974Z" fill="#DA6C37"/>
<path d="M125.313 0.900051L125.889 0.800049L124.737 0.900051H125.313Z" fill="#DA6C37"/>
</svg>
