<svg width="134" height="29" viewBox="0 0 134 29" fill="none" xmlns="http://www.w3.org/2000/svg">
<g clip-path="url(#clip0_672_5615)">
<path fill-rule="evenodd" clip-rule="evenodd" d="M130.155 7.48304H96.7538C95.392 7.48304 94.288 8.5711 94.288 9.91326V25.0304C94.288 26.3727 95.392 27.4606 96.7538 27.4606H130.155C131.517 27.4606 132.621 26.3727 132.621 25.0304V9.91326C132.621 8.5711 131.517 7.48304 130.155 7.48304ZM96.7538 6.12402C94.6303 6.12402 92.9091 7.82052 92.9091 9.91326V25.0304C92.9091 27.1231 94.6303 28.8197 96.7538 28.8197H130.155C132.279 28.8197 134 27.1231 134 25.0304V9.91326C134 7.82052 132.279 6.12402 130.155 6.12402H96.7538Z" fill="#24665A"/>
<path fill-rule="evenodd" clip-rule="evenodd" d="M103.648 11.5576H98.6537V23.3647H100.437V18.5455H103.437C104.728 18.5455 105.71 18.2216 106.37 17.604C107.031 16.985 107.345 16.094 107.345 15.0114C107.345 14.1078 107.041 13.3154 106.528 12.7227C105.891 11.9723 104.9 11.5576 103.648 11.5576ZM114.574 11.5576H112.71L108.326 23.3647H110.165L111.414 19.8627H115.805L117.037 23.3647H118.974L114.574 11.5576ZM121.351 11.5576H119.344L123.675 18.3828V23.3647H125.459V18.4153L129.839 11.5576H127.897L124.6 16.897L121.351 11.5576ZM100.437 17.0515V13.1319H103.405C104.118 13.1319 104.658 13.3066 105.018 13.6252C105.374 13.9411 105.578 14.4189 105.578 15.0756C105.578 15.7029 105.393 16.1893 105.035 16.5205C104.676 16.8531 104.117 17.0515 103.324 17.0515H100.437ZM113.606 13.6652C113.62 13.6224 113.633 13.581 113.646 13.5414C113.659 13.5823 113.672 13.625 113.686 13.6692C113.787 13.9947 113.918 14.4024 114.032 14.7265L114.032 14.7271L115.288 18.3688H111.95L113.252 14.7277L113.252 14.7259C113.366 14.3953 113.5 13.9887 113.606 13.6652Z" fill="#24665A"/>
<path d="M9.90327 9.08373C5.9252 9.08373 3.67064 11.3348 2.8508 12.8356V0.198242H0V28.1634H2.46884V24.6036C3.11165 25.7292 5.33825 28.9046 9.70764 28.9046C14.9807 28.9046 18.67 24.8323 18.67 18.9941C18.67 13.3389 14.9061 9.08373 9.90327 9.08373ZM9.52131 26.4704C6.24195 26.4704 2.84149 23.6702 2.84149 18.9849C2.84149 14.2997 6.23264 11.4996 9.52131 11.4996C12.5584 11.4996 15.8191 13.8422 15.8191 18.9849C15.8285 24.1369 12.5584 26.4704 9.52131 26.4704Z" fill="#24665A"/>
<path d="M40.2653 9.08398C34.806 9.08398 30.9862 13.1561 30.9862 18.9944C30.9862 24.8326 34.8246 28.9048 40.3306 28.9048C44.9795 28.9048 48.1935 26.4524 48.9202 22.3436L48.9388 22.2247H46.3302L46.3209 22.3162C45.9669 24.8052 43.554 26.4798 40.3213 26.4798C35.5513 26.4798 33.716 22.8834 33.5762 19.4703H49.2557V18.2532C49.2742 13.815 46.9078 9.08398 40.2653 9.08398ZM33.716 17.2191C34.0513 15.4072 35.3369 11.509 40.2746 11.509C45.4546 11.509 46.4235 15.7367 46.6004 17.2191H33.716Z" fill="#24665A"/>
<path d="M60.6402 9.08398C55.1809 9.08398 51.3611 13.1561 51.3611 18.9944C51.3611 24.8326 55.1994 28.9048 60.7055 28.9048C65.3544 28.9048 68.5684 26.4524 69.2951 22.3436L69.3138 22.2247H66.7051L66.6958 22.3162C66.3418 24.8052 63.9289 26.4798 60.6962 26.4798C55.9262 26.4798 54.0909 22.8834 53.9511 19.4703H69.6305V18.2532C69.6398 13.815 67.2827 9.08398 60.6402 9.08398ZM54.0814 17.2191C54.4169 15.4072 55.7025 11.509 60.6402 11.509C65.8202 11.509 66.7891 15.7367 66.966 17.2191H54.0814Z" fill="#24665A"/>
<path d="M84.3691 24.4932C83.3069 24.4932 82.5338 25.2619 82.5338 26.3234C82.5338 27.3849 83.2976 28.1536 84.3411 28.1536C85.4218 28.1536 86.1764 27.4032 86.1764 26.3234C86.1764 25.2436 85.4311 24.4932 84.3691 24.4932Z" fill="#24665A"/>
<path d="M26.5516 9.96223C25.2845 10.8956 24.7721 11.765 24.1852 12.8996V11.4264L24.1758 9.55958H21.5394L21.4834 28.1632H24.3156L24.297 22.1786L24.2876 17.5666C24.2876 16.8071 24.2598 16.0201 24.4832 15.2606C24.6883 14.5102 25.0981 13.8147 25.6478 13.2565C26.775 12.131 28.657 11.765 30.1849 11.8839V9.15695C29.0856 8.95563 27.7812 9.06545 26.5516 9.96223Z" fill="#24665A"/>
<path d="M78.6486 4.06041C79.0491 3.42901 79.7106 2.9257 80.4746 2.68778C81.0522 2.50477 81.7044 2.43157 82.4497 2.44987L82.4404 0.034035C81.3131 -0.0574737 80.2882 0.034035 79.3939 0.326862C78.3691 0.656293 77.4188 1.2877 76.7295 2.12044C76.0866 2.89825 75.6301 3.87739 75.3879 5.0487C75.1457 6.13766 75.127 7.28152 75.1364 8.35216V9.8895H70.9906V12.0674H75.1364V28.1639H77.9126V12.0674H82.431V9.8895H77.9219L77.9126 8.38876V8.36131C77.9033 7.64755 77.9126 7.03445 78.0057 6.18341C78.071 5.50625 78.2108 4.71927 78.6486 4.06041Z" fill="#24665A"/>
</g>
<defs>
<clipPath id="clip0_672_5615">
<rect width="134" height="29" fill="white"/>
</clipPath>
</defs>
</svg>
